<svg width="880" height="620" viewBox="0 0 880 620" fill="none" xmlns="http://www.w3.org/2000/svg">
  <defs>
    <linearGradient id="p_bg" x1="120" y1="40" x2="760" y2="560" gradientUnits="userSpaceOnUse">
      <stop stop-color="#0F172A" stop-opacity="0.95"/>
      <stop offset="1" stop-color="#111827" stop-opacity="0.9"/>
    </linearGradient>
    <linearGradient id="p_red" x1="0" y1="0" x2="1" y2="1">
      <stop stop-color="#FB7185" stop-opacity="0.5"/>
      <stop offset="1" stop-color="#EF4444" stop-opacity="0.35"/>
    </linearGradient>
  </defs>

  <rect x="80" y="60" width="720" height="500" rx="40" fill="url(#p_bg)" stroke="#334155" stroke-opacity="0.6"/>
  <rect x="130" y="120" width="620" height="120" rx="24" fill="#0B1220" stroke="#334155" stroke-opacity="0.7"/>
  <rect x="130" y="280" width="300" height="230" rx="24" fill="#0B1220" stroke="#334155" stroke-opacity="0.7"/>
  <rect x="450" y="280" width="300" height="230" rx="24" fill="#0B1220" stroke="#334155" stroke-opacity="0.7"/>

  <path d="M160 205 C220 140, 300 245, 360 190 C420 135, 500 270, 560 210 C620 150, 690 230, 720 170" stroke="url(#p_red)" stroke-width="8" stroke-linecap="round"/>
  <circle cx="720" cy="170" r="9" fill="#FB7185"/>

  <rect x="165" y="325" width="230" height="20" rx="10" fill="#1E293B"/>
  <rect x="165" y="360" width="180" height="14" rx="7" fill="#334155"/>
  <rect x="165" y="385" width="210" height="14" rx="7" fill="#334155"/>

  <rect x="485" y="325" width="230" height="20" rx="10" fill="#1E293B"/>
  <rect x="485" y="360" width="180" height="14" rx="7" fill="#334155"/>
  <rect x="485" y="385" width="210" height="14" rx="7" fill="#334155"/>

  <circle cx="150" cy="100" r="8" fill="#FB7185" fill-opacity="0.8"/>
  <circle cx="730" cy="520" r="10" fill="#F59E0B" fill-opacity="0.7"/>
</svg>
